<svg id="Layer_1" data-name="Layer 1" xmlns="http://www.w3.org/2000/svg" viewBox="0 0 89.34 179.69"><defs><style>.cls-1{fill:none;stroke:#000;stroke-width:2px;}</style></defs><polygon class="cls-1" points="1 73.28 28.11 73.28 28.11 28.11 61.23 28.11 61.23 61.23 53.71 61.23 53.71 76.29 46.18 76.29 46.18 91.35 38.65 91.35 38.65 106.41 31.12 106.41 31.12 121.47 23.59 121.47 23.59 136.53 16.06 136.53 16.06 151.59 1 151.59 1 178.69 88.34 178.69 88.34 151.59 43.16 151.59 43.16 148.58 50.69 148.58 50.69 133.52 58.22 133.52 58.22 118.46 65.75 118.46 65.75 103.4 73.28 103.4 73.28 88.34 80.81 88.34 80.81 73.28 88.34 73.28 88.34 16.06 73.28 16.06 73.28 1 16.06 1 16.06 16.06 1 16.06 1 73.28"/></svg>